<svg width="49" height="52" viewBox="0 0 49 52" fill="none" xmlns="http://www.w3.org/2000/svg">
<path fill-rule="evenodd" clip-rule="evenodd" d="M39.2 2.6H9.8C5.74071 2.6 2.45 6.09218 2.45 10.4V41.6C2.45 45.9078 5.74071 49.4 9.8 49.4H39.2C43.2593 49.4 46.55 45.9078 46.55 41.6V10.4C46.55 6.09218 43.2593 2.6 39.2 2.6ZM9.8 0C4.38761 0 0 4.65624 0 10.4V41.6C0 47.3438 4.38761 52 9.8 52H39.2C44.6124 52 49 47.3438 49 41.6V10.4C49 4.65624 44.6124 0 39.2 0H9.8Z" fill="black"/>
<g clip-path="url(#clip0_69_114)">
<path d="M40.425 26.1029C40.425 16.7115 33.2961 9.1 24.5 9.1C15.7039 9.1 8.575 16.7115 8.575 26.1029C8.575 34.5911 14.3976 41.6248 22.0117 42.9V31.0179H17.9683V26.1029H22.0117V22.357C22.0117 18.0963 24.388 15.7418 28.0271 15.7418C29.7689 15.7418 31.5916 16.0739 31.5916 16.0739V20.2582H29.5823C27.6041 20.2582 26.9883 21.5699 26.9883 22.9149V26.1029H31.405L30.6989 31.0179H26.9883V42.9C34.6024 41.6248 40.425 34.5911 40.425 26.1029Z" fill="black"/>
</g>
<defs>
<clipPath id="clip0_69_114">
<rect width="31.85" height="33.8" fill="white" transform="translate(8.575 9.1)"/>
</clipPath>
</defs>
</svg>
