<svg width="52" height="52" viewBox="0 0 52 52" fill="none" xmlns="http://www.w3.org/2000/svg">
<path fill-rule="evenodd" clip-rule="evenodd" d="M41.6 2.6H10.4C6.09218 2.6 2.6 6.09218 2.6 10.4V41.6C2.6 45.9078 6.09218 49.4 10.4 49.4H41.6C45.9078 49.4 49.4 45.9078 49.4 41.6V10.4C49.4 6.09218 45.9078 2.6 41.6 2.6ZM10.4 0C4.65624 0 0 4.65624 0 10.4V41.6C0 47.3438 4.65624 52 10.4 52H41.6C47.3438 52 52 47.3438 52 41.6V10.4C52 4.65624 47.3438 0 41.6 0H10.4Z" fill="black"/>
<g clip-path="url(#clip0_69_113)">
<path d="M26 12.1459C30.5152 12.1459 31.0452 12.166 32.8298 12.2465C34.4802 12.3203 35.3725 12.5954 35.9696 12.8302C36.7613 13.1388 37.3248 13.5011 37.9152 14.0915C38.5056 14.6819 38.8746 15.2455 39.1765 16.0371C39.4046 16.6342 39.6864 17.5265 39.7602 19.1769C39.8407 20.9615 39.8608 21.4915 39.8608 26.0067C39.8608 30.5219 39.8407 31.0519 39.7602 32.8365C39.6864 34.4869 39.4113 35.3792 39.1765 35.9763C38.8679 36.768 38.5056 37.3315 37.9152 37.9219C37.3248 38.5123 36.7613 38.8813 35.9696 39.1832C35.3725 39.4113 34.4802 39.6931 32.8298 39.7669C31.0452 39.8474 30.5152 39.8675 26 39.8675C21.4848 39.8675 20.9548 39.8474 19.1702 39.7669C17.5198 39.6931 16.6275 39.418 16.0304 39.1832C15.2388 38.8746 14.6752 38.5123 14.0848 37.9219C13.4944 37.3315 13.1254 36.768 12.8235 35.9763C12.5954 35.3792 12.3136 34.4869 12.2398 32.8365C12.1593 31.0519 12.1392 30.5219 12.1392 26.0067C12.1392 21.4915 12.1593 20.9615 12.2398 19.1769C12.3136 17.5265 12.5887 16.6342 12.8235 16.0371C13.1321 15.2455 13.4944 14.6819 14.0848 14.0915C14.6752 13.5011 15.2388 13.1321 16.0304 12.8302C16.6275 12.6021 17.5198 12.3203 19.1702 12.2465C20.9548 12.1593 21.4916 12.1459 26 12.1459ZM26 9.1C21.411 9.1 20.8341 9.12013 19.0293 9.20063C17.2313 9.28114 16.0036 9.56963 14.9301 9.98559C13.8164 10.415 12.8772 10.9986 11.9379 11.9379C10.9987 12.8772 10.4217 13.8231 9.98559 14.9301C9.56963 16.0036 9.28114 17.2313 9.20064 19.036C9.12013 20.8341 9.1 21.411 9.1 26C9.1 30.589 9.12013 31.1659 9.20064 32.9707C9.28114 34.7687 9.56963 35.9964 9.98559 37.0766C10.415 38.1903 10.9987 39.1295 11.9379 40.0688C12.8772 41.0081 13.8231 41.585 14.9301 42.0211C16.0036 42.4371 17.2313 42.7256 19.0361 42.8061C20.8408 42.8866 21.411 42.9067 26.0067 42.9067C30.6024 42.9067 31.1727 42.8866 32.9774 42.8061C34.7754 42.7256 36.0032 42.4371 37.0833 42.0211C38.197 41.5917 39.1363 41.0081 40.0755 40.0688C41.0148 39.1295 41.5918 38.1836 42.0279 37.0766C42.4438 36.0031 42.7323 34.7754 42.8128 32.9707C42.8933 31.1659 42.9135 30.5957 42.9135 26C42.9135 21.4043 42.8933 20.8341 42.8128 19.0293C42.7323 17.2313 42.4438 16.0036 42.0279 14.9234C41.5985 13.8097 41.0148 12.8705 40.0755 11.9312C39.1363 10.9919 38.1903 10.415 37.0833 9.97888C36.0099 9.56292 34.7821 9.27443 32.9774 9.19392C31.166 9.12013 30.589 9.1 26 9.1Z" fill="black"/>
<path d="M25.9999 17.3251C21.2097 17.3251 17.3185 21.2096 17.3185 26.0066C17.3185 30.8035 21.203 34.688 25.9999 34.688C30.7969 34.688 34.6814 30.8035 34.6814 26.0066C34.6814 21.2096 30.7969 17.3251 25.9999 17.3251ZM25.9999 31.6354C22.887 31.6354 20.3644 29.1129 20.3644 25.9999C20.3644 22.8869 22.887 20.3643 25.9999 20.3643C29.1129 20.3643 31.6355 22.8869 31.6355 25.9999C31.6355 29.1129 29.1129 31.6354 25.9999 31.6354Z" fill="black"/>
<path d="M35.0234 19.0025C36.1424 19.0025 37.0495 18.0954 37.0495 16.9764C37.0495 15.8574 36.1424 14.9503 35.0234 14.9503C33.9044 14.9503 32.9973 15.8574 32.9973 16.9764C32.9973 18.0954 33.9044 19.0025 35.0234 19.0025Z" fill="black"/>
</g>
<defs>
<clipPath id="clip0_69_113">
<rect width="33.8" height="33.8" fill="white" transform="translate(9.1 9.1)"/>
</clipPath>
</defs>
</svg>
