<svg width="49" height="52" viewBox="0 0 49 52" fill="none" xmlns="http://www.w3.org/2000/svg">
<g clip-path="url(#clip0_69_117)">
<path fill-rule="evenodd" clip-rule="evenodd" d="M36.1509 10.4266H12.6894C9.36869 10.4266 6.66422 13.3088 6.66422 16.8207V32.2971C6.66422 35.8211 9.3801 38.6912 12.6894 38.6912H20.974L22.4004 41.3069L23.8039 43.8863C24.055 44.3586 24.694 44.3586 24.9565 43.8863L26.3601 41.3069L27.7865 38.6912H36.1624C39.483 38.6912 42.1875 35.809 42.1875 32.2971V16.8328C42.1875 13.3088 39.4716 10.4266 36.1509 10.4266ZM26.0633 21.7615C24.2489 21.7615 22.7768 23.2995 22.7768 25.2007C22.7768 27.102 24.2489 28.6399 26.0633 28.6399C27.8777 28.6399 29.3497 27.102 29.3497 25.2007C29.3497 23.2995 27.8891 21.7615 26.0633 21.7615ZM26.0633 26.8477C25.196 26.8477 24.4885 26.109 24.4885 25.2007C24.4885 24.2925 25.196 23.5538 26.0633 23.5538C26.9305 23.5538 27.638 24.2925 27.638 25.2007C27.638 26.109 26.9419 26.8477 26.0633 26.8477ZM13.7848 22.5487C14.2983 22.0522 14.9602 21.7615 15.6677 21.7615C17.3109 21.7615 18.6232 23.3116 18.6232 25.2128C18.6232 27.1141 17.2995 28.6521 15.6677 28.6521C14.9487 28.6521 14.2983 28.3493 13.7848 27.8649V28.4825H11.959V19.7028H13.7848V22.5487ZM13.7962 25.8789C14.0473 26.4965 14.6292 26.9204 15.3025 26.9204C16.2154 26.9204 16.9457 26.1574 16.9457 25.2007C16.9457 24.2441 16.2154 23.4811 15.3025 23.4811C14.6292 23.4811 14.0473 23.905 13.7962 24.5226C13.7049 24.7285 13.6593 24.9585 13.6593 25.2007C13.6593 25.4429 13.7163 25.673 13.7962 25.8789ZM35.044 21.9069V22.4518C34.5305 22.028 33.8915 21.7737 33.2068 21.7737C31.5293 21.7737 30.1714 23.2632 30.1714 25.0918C30.1714 26.9204 31.5293 28.4099 33.2068 28.4099C33.9029 28.4099 34.5419 28.1556 35.044 27.7317V28.6521C35.044 28.6521 34.8614 29.5603 33.5834 29.5603V31.2678C33.5834 31.2678 34.9641 31.4374 36.1966 30.1295C36.1966 30.1295 36.7671 29.4877 36.8926 28.64V21.9069H35.044ZM33.5491 26.7751C32.6248 26.7751 31.8831 26.0121 31.8831 25.0797C31.8831 24.1472 32.6362 23.3843 33.5491 23.3843C34.1996 23.3843 34.7701 23.7718 35.044 24.3288C35.1581 24.5589 35.2152 24.8132 35.2152 25.0797C35.2152 25.3461 35.1467 25.6125 35.044 25.8305C34.7701 26.3996 34.1996 26.7751 33.5491 26.7751ZM18.8286 21.2892V19.5333C18.8286 19.5333 20.0382 19.3638 21.1109 20.708C21.1109 20.708 21.6016 21.3619 21.7157 22.2338V22.2822V28.4825H19.8328V22.2822C19.6731 21.4103 18.8286 21.2892 18.8286 21.2892Z" fill="black"/>
<path fill-rule="evenodd" clip-rule="evenodd" d="M41.585 2.62301H7.41504C4.6849 2.62301 2.47168 4.97173 2.47168 7.86902V44.131C2.47168 47.0283 4.6849 49.377 7.41504 49.377H41.585C44.3151 49.377 46.5283 47.0283 46.5283 44.131V7.86903C46.5283 4.97173 44.3151 2.62301 41.585 2.62301ZM7.41504 0H41.585C45.6802 0 49 3.52308 49 7.86903V44.131C49 48.4769 45.6802 52 41.585 52H7.41504C3.31982 52 0 48.4769 0 44.131V7.86902C0 3.52307 3.31983 0 7.41504 0Z" fill="black"/>
</g>
<defs>
<clipPath id="clip0_69_117">
<rect width="49" height="52" fill="white"/>
</clipPath>
</defs>
</svg>
